<?xml version="1.0" standalone="no"?>
<!DOCTYPE svg PUBLIC "-//W3C//DTD SVG 20010904//EN"
 "http://www.w3.org/TR/2001/REC-SVG-20010904/DTD/svg10.dtd">
<svg version="1.0" xmlns="http://www.w3.org/2000/svg"
 width="260.000000pt" height="260.000000pt" viewBox="0 0 260.000000 260.000000"
 preserveAspectRatio="xMidYMid meet">
<metadata>
Created by potrace 1.11, written by Peter Selinger 2001-2013
</metadata>
<g transform="translate(0.000000,260.000000) scale(0.100000,-0.100000)"
fill="#000000" stroke="none">
<path d="M0 1300 l0 -1300 1300 0 1300 0 0 1300 0 1300 -1300 0 -1300 0 0
-1300z m1894 502 c28 -13 65 -34 84 -49 65 -49 90 -151 57 -230 -20 -47 -40
-69 -93 -103 l-43 -28 31 -10 c84 -30 150 -124 150 -215 0 -80 -19 -127 -76
-184 -41 -41 -65 -56 -120 -73 -78 -25 -266 -38 -378 -26 l-66 8 0 459 0 459
23 5 c49 11 98 13 237 11 125 -2 152 -5 194 -24z"/>
<path d="M1610 1575 l0 -125 75 0 c127 0 190 43 190 130 0 85 -54 120 -185
120 l-80 0 0 -125z"/>
<path d="M1610 1165 l0 -157 88 4 c138 6 197 52 197 153 0 99 -62 146 -202
153 l-83 5 0 -158z"/>
</g>
</svg>
